<?xml version="1.0" encoding="UTF-8" standalone="no"?>
<svg
   width="1024"
   height="1024"
   viewBox="0 0 1024 1024"
   version="1.1"
   id="svg6"
   sodipodi:docname="icon.svg"
   inkscape:version="1.3.2 (091e20e, 2023-11-25, custom)"
   xmlns:inkscape="http://www.inkscape.org/namespaces/inkscape"
   xmlns:sodipodi="http://sodipodi.sourceforge.net/DTD/sodipodi-0.dtd"
   xmlns="http://www.w3.org/2000/svg"
   xmlns:svg="http://www.w3.org/2000/svg">
  <defs
     id="defs6" />
  <sodipodi:namedview
     id="namedview6"
     pagecolor="#ffffff"
     bordercolor="#000000"
     borderopacity="0.25"
     inkscape:showpageshadow="2"
     inkscape:pageopacity="0.0"
     inkscape:pagecheckerboard="0"
     inkscape:deskcolor="#d1d1d1"
     inkscape:zoom="1.6310412"
     inkscape:cx="457.07"
     inkscape:cy="724.99701"
     inkscape:window-width="2560"
     inkscape:window-height="1377"
     inkscape:window-x="-8"
     inkscape:window-y="-8"
     inkscape:window-maximized="1"
     inkscape:current-layer="svg6" />
  <g
     fill="#fff"
     id="g4">
    <path
       d="M105 673v33q407 354 814 0v-33z"
       id="path1" />
    <path
       fill="#478cbf"
       d="m 105,715 152,14 c 8,0.66667 13,5.33333 15,14 l 4,35 132,10 8,-29 c 1.33333,-7.33333 6.33333,-12.33333 15,-15 h 162 c 8.66667,2.66667 13.66667,7.66667 15,15 l 8,29 132,-10 4,-35 c 2,-8.66667 7,-13.33333 15,-14 L 919,715 V 534.51567 c 20,-26 7.78641,-53 23.91871,-81 C 921.20215,414.18234 966.30349,228.18064 931.01778,195.51397 899.40766,208.8473 836,267 810,285 c -26.66667,-24.66667 -56,-46 -88,-64 4.66667,-34 7.33333,-68 8,-102 -39.33333,-18.66667 -80.33333,-32.666667 -123,-42 -17.33333,28.66667 -32.66667,58.33333 -46,89 -32.66667,-4.66667 -65.33333,-4.66667 -98,0 -13.33333,-30.66667 -28.66667,-60.33333 -46,-89 -42.66667,9.333333 -83.66667,23.33333 -123,42 0.66667,34 3.33333,68 8,102 -32,18 -61.33333,39.33333 -88,64 -26,-18 -89.40766,-76.1527 -121.017782,-89.48603 -35.285708,32.66667 9.815632,218.66837 -11.900931,258.0017 16.132306,28 3.918713,55 23.918713,81 z m 0,23 v 7 c 0,276 813,276 813,0 v -7 l -134,22 -5,27 c -1.33333,6.66667 -6,11 -14,13 l -162,11 c -8,0 -13.33333,-3.66667 -16,-11 L 577,767 H 447 l -10,33 c -2.66667,7.33333 -8,11 -16,11 L 259,800 c -8,-2 -12.66667,-6.33333 -14,-13 l -5,-37 z"
       id="path2"
       style="fill:#bf4747;fill-opacity:1"
       sodipodi:nodetypes="ccccccccccccccccccccccccccccccccsscccccccccccccc" />
    <path
       d="M483 600c3 34 55 34 58 0v-86c-3-34-55-34-58 0z"
       id="path3" />
    <circle
       cx="725"
       cy="526"
       r="90"
       id="circle3" />
    <circle
       cx="299"
       cy="526"
       r="90"
       id="circle4" />
  </g>
  <g
     fill="#414042"
     id="g6">
    <circle
       cx="307"
       cy="532"
       r="60"
       id="circle5" />
    <circle
       cx="717"
       cy="532"
       r="60"
       id="circle6" />
    <circle
       cx="717"
       cy="532"
       r="60"
       id="circle1" />
  </g>
  <path
     style="fill:#ffffff"
     d="m 271.1364,739.51659 116.61762,-88.0992 35.37215,96.24385"
     id="path30"
     sodipodi:nodetypes="ccc" />
</svg>
