<?xml version="1.0" encoding="UTF-8" standalone="no"?>
<svg
   width="1024"
   height="414"
   viewBox="0 0 1024 414"
   version="1.1"
   id="svg12"
   sodipodi:docname="logo_outlined.svg"
   xml:space="preserve"
   inkscape:version="1.3.2 (091e20e, 2023-11-25, custom)"
   xmlns:inkscape="http://www.inkscape.org/namespaces/inkscape"
   xmlns:sodipodi="http://sodipodi.sourceforge.net/DTD/sodipodi-0.dtd"
   xmlns="http://www.w3.org/2000/svg"
   xmlns:svg="http://www.w3.org/2000/svg"><defs
     id="defs12" /><sodipodi:namedview
     id="namedview12"
     pagecolor="#ffffff"
     bordercolor="#000000"
     borderopacity="0.25"
     inkscape:showpageshadow="2"
     inkscape:pageopacity="0.0"
     inkscape:pagecheckerboard="0"
     inkscape:deskcolor="#d1d1d1"
     inkscape:zoom="1.0537501"
     inkscape:cx="344.48396"
     inkscape:cy="290.86593"
     inkscape:window-width="2560"
     inkscape:window-height="1377"
     inkscape:window-x="-8"
     inkscape:window-y="-8"
     inkscape:window-maximized="1"
     inkscape:current-layer="svg12" /><path
     stroke="#fff"
     stroke-width="23.5"
     stroke-linejoin="round"
     d="M523.82 188.382c-9.142-.142-19.603 1.764-19.603 1.764v17.842h10.52l-.117 7.953c0 2.946-2.92 4.427-8.747 4.427-5.831 0-10.982-2.47-15.45-7.395-4.48-4.932-6.708-12.141-6.708-21.64 0-9.519 2.176-16.537 6.536-21.065 4.35-4.524 10.05-6.794 17.064-6.794 2.946 0 5.996.476 9.168 1.445 3.174.962 5.293 1.863 6.375 2.707 1.072.867 2.09 1.277 3.056 1.277.96 0 2.513-1.122 4.66-3.392 2.153-2.263 4.082-5.693 5.782-10.267 1.694-4.598 2.543-8.122 2.543-10.621 0-2.48-.054-4.19-.164-5.092-2.379-2.603-6.767-4.666-13.168-6.2-6.39-1.53-13.552-2.289-21.476-2.289-17.438 0-31.073 5.49-40.92 16.47-9.855 10.982-14.773 25.24-14.773 42.79 0 20.607 5.035 36.227 15.103 46.868 10.085 10.64 23.327 15.953 39.743 15.953 8.827 0 16.664-.76 23.51-2.289 6.853-1.523 11.41-3.088 13.676-4.67l.68-53.137c0-3.087-8.149-4.488-17.29-4.645zm84.247-24.804c-5.431 0-9.98 2.496-13.671 7.47-3.672 4.98-5.517 11.969-5.517 20.963 0 9.013 1.754 15.914 5.27 20.722 3.508 4.823 8.117 7.225 13.835 7.225 5.715 0 10.358-2.432 13.924-7.313q5.351-7.293 5.353-20.884c0-9.054-1.846-16.023-5.524-20.89q-5.51-7.292-13.67-7.293m-.083 89.477c-15.9 0-28.868-5.203-38.89-15.61q-15.016-15.624-15.017-45.592c0-19.992 5.063-35.128 15.191-45.435 10.131-10.293 23.209-15.444 39.228-15.444 16.016 0 28.954 5.058 38.795 15.204 9.858 10.126 14.778 25.477 14.778 46.009 0 20.546-5.034 35.828-15.114 45.856-10.08 10.008-23.062 15.012-38.971 15.012m101.95-88.298v50.788c0 2.37.176 3.866.515 4.493.337.624 1.358.937 3.052.937 6.232 0 10.954-2.328 14.181-6.97 3.235-4.636 4.835-12.356 4.835-23.168 0-10.817-1.674-17.865-5-21.139-3.344-3.283-8.64-4.94-15.884-4.94zm-32.599 78.798V141.681c0-2.832.704-5.067 2.126-6.724 1.413-1.632 3.25-2.461 5.521-2.461h28.357c17.994 0 31.664 4.54 40.994 13.597 9.347 9.054 14.02 23.31 14.02 42.784 0 41.66-17.778 62.486-53.326 62.486h-29.03c-5.769 0-8.662-2.597-8.662-7.808m156.544-79.977c-5.432 0-9.994 2.496-13.678 7.47q-5.507 7.471-5.508 20.963c0 9.013 1.758 15.914 5.262 20.722 3.505 4.823 8.119 7.225 13.837 7.225 5.717 0 10.363-2.432 13.924-7.313q5.354-7.293 5.355-20.884c0-9.054-1.843-16.023-5.522-20.89-3.68-4.861-8.23-7.293-13.67-7.293m-.087 89.477q-23.86 0-38.88-15.61-15.03-15.624-15.03-45.592c0-19.992 5.065-35.128 15.191-45.435 10.139-10.293 23.209-15.444 39.233-15.444 16.02 0 28.946 5.058 38.8 15.204 9.85 10.126 14.772 25.477 14.772 46.009 0 20.546-5.037 35.828-15.115 45.856-10.076 10.008-23.07 15.012-38.971 15.012m117.69-4.17c0 2.251-5.597 3.392-16.809 3.392-11.202 0-16.815-1.141-16.815-3.392v-85.248h-20.371c-1.928 0-3.286-2.597-4.077-7.818a56 56 0 0 1-.501-7.636c0-2.592.162-5.146.501-7.636.79-5.205 2.15-7.823 4.077-7.823h73.864c1.924 0 3.277 2.617 4.078 7.823.333 2.49.505 5.043.505 7.636 0 2.608-.172 5.152-.505 7.637-.8 5.22-2.154 7.817-4.078 7.817h-19.87z"
     id="path1" /><path
     fill="#414042"
     d="M523.82 188.382c-9.142-.142-19.603 1.764-19.603 1.764v17.842h10.52l-.117 7.953c0 2.946-2.92 4.427-8.747 4.427-5.831 0-10.982-2.47-15.45-7.395-4.48-4.932-6.708-12.141-6.708-21.64 0-9.519 2.176-16.537 6.536-21.065 4.35-4.524 10.05-6.794 17.064-6.794 2.946 0 5.996.476 9.168 1.445 3.174.962 5.293 1.863 6.375 2.707 1.072.867 2.09 1.277 3.056 1.277.96 0 2.513-1.122 4.66-3.392 2.153-2.263 4.082-5.693 5.782-10.267 1.694-4.598 2.543-8.122 2.543-10.621 0-2.48-.054-4.19-.164-5.092-2.379-2.603-6.767-4.666-13.168-6.2-6.39-1.53-13.552-2.289-21.476-2.289-17.438 0-31.073 5.49-40.92 16.47-9.855 10.982-14.773 25.24-14.773 42.79 0 20.607 5.035 36.227 15.103 46.868 10.085 10.64 23.327 15.953 39.743 15.953 8.827 0 16.664-.76 23.51-2.289 6.853-1.523 11.41-3.088 13.676-4.67l.68-53.137c0-3.087-8.149-4.488-17.29-4.645m84.247-24.804c-5.431 0-9.98 2.496-13.671 7.47-3.672 4.98-5.517 11.969-5.517 20.963 0 9.013 1.754 15.914 5.27 20.722 3.508 4.823 8.117 7.225 13.835 7.225 5.715 0 10.358-2.432 13.924-7.313q5.351-7.293 5.353-20.884c0-9.054-1.846-16.023-5.524-20.89q-5.51-7.292-13.67-7.293m-.083 89.477c-15.9 0-28.868-5.203-38.89-15.61q-15.016-15.624-15.017-45.592c0-19.992 5.063-35.128 15.191-45.435 10.131-10.293 23.209-15.444 39.228-15.444 16.016 0 28.954 5.058 38.795 15.204 9.858 10.126 14.778 25.477 14.778 46.009 0 20.546-5.034 35.828-15.114 45.856-10.08 10.008-23.062 15.012-38.971 15.012m101.95-88.298v50.788c0 2.37.176 3.866.515 4.493.337.624 1.358.937 3.052.937 6.232 0 10.954-2.328 14.181-6.97 3.235-4.636 4.835-12.356 4.835-23.168 0-10.817-1.674-17.865-5-21.139-3.344-3.283-8.64-4.94-15.884-4.94zm-32.599 78.798V141.681c0-2.832.704-5.067 2.126-6.724 1.413-1.632 3.25-2.461 5.521-2.461h28.357c17.994 0 31.664 4.54 40.994 13.597 9.347 9.054 14.02 23.31 14.02 42.784 0 41.66-17.778 62.486-53.326 62.486h-29.03c-5.769 0-8.662-2.597-8.662-7.808m156.544-79.977c-5.432 0-9.994 2.496-13.678 7.47q-5.507 7.471-5.508 20.963c0 9.013 1.758 15.914 5.262 20.722 3.505 4.823 8.119 7.225 13.837 7.225 5.717 0 10.363-2.432 13.924-7.313q5.354-7.293 5.355-20.884c0-9.054-1.843-16.023-5.522-20.89-3.68-4.861-8.23-7.293-13.67-7.293m-.087 89.477q-23.86 0-38.88-15.61-15.03-15.624-15.03-45.592c0-19.992 5.065-35.128 15.191-45.435 10.139-10.293 23.209-15.444 39.233-15.444 16.02 0 28.946 5.058 38.8 15.204 9.85 10.126 14.772 25.477 14.772 46.009 0 20.546-5.037 35.828-15.115 45.856-10.076 10.008-23.07 15.012-38.971 15.012m117.69-4.17c0 2.251-5.597 3.392-16.809 3.392-11.202 0-16.815-1.141-16.815-3.392v-85.248h-20.371c-1.928 0-3.286-2.597-4.077-7.818a56 56 0 0 1-.501-7.636c0-2.592.162-5.146.501-7.636.79-5.205 2.15-7.823 4.077-7.823h73.864c1.924 0 3.277 2.617 4.078 7.823.333 2.49.505 5.043.505 7.636 0 2.608-.172 5.152-.505 7.637-.8 5.22-2.154 7.817-4.078 7.817h-19.87z"
     id="path2" /><path
     stroke="#fff"
     stroke-width="23.5"
     stroke-linejoin="round"
     d="M487.93 322.997c-.94 1.926-2.664 3.691-5.188 5.289-2.52 1.607-5.722 2.406-9.611 2.406-5.132 0-9.259-1.617-12.394-4.887-3.122-3.243-4.686-7.92-4.686-14.022V296.57c0-5.97 1.473-10.548 4.431-13.743 2.95-3.17 6.903-4.78 11.84-4.78 4.824 0 8.564 1.27 11.212 3.781 2.639 2.519 4.025 6.038 4.146 10.532l-.066.2h-3.94c-.14-3.443-1.14-6.101-3.022-7.979-1.871-1.861-4.655-2.803-8.33-2.803-3.72 0-6.668 1.259-8.823 3.785-2.15 2.518-3.224 6.17-3.224 10.968v15.301q.001 7.462 3.476 11.382c2.316 2.592 5.438 3.892 9.38 3.892 2.876 0 5.19-.51 6.92-1.554 1.738-1.028 2.942-2.285 3.624-3.775V308.45h-10.618v-3.704h14.873zm19.557 3.902c2.336 0 4.416-.661 6.232-2.01 1.82-1.353 3.096-3.063 3.852-5.146v-8.224h-6.756q-4.31 0-6.896 2.442c-1.726 1.617-2.581 3.637-2.581 6.037 0 2.03.534 3.696 1.616 4.981 1.08 1.289 2.59 1.92 4.533 1.92m10.715 3.068a99 99 0 0 1-.48-3.225 22 22 0 0 1-.15-2.562 14.9 14.9 0 0 1-4.483 4.675c-1.836 1.236-3.878 1.848-6.128 1.848-3.147 0-5.567-.975-7.28-2.927-1.702-1.96-2.563-4.6-2.563-7.936 0-3.523 1.237-6.35 3.72-8.448 2.48-2.098 5.85-3.147 10.09-3.147h6.643v-4.672c0-2.686-.686-4.802-2.032-6.331-1.375-1.51-3.264-2.275-5.701-2.275-2.268 0-4.139.722-5.608 2.182-1.463 1.45-2.19 3.224-2.19 5.337l-3.944-.035-.07-.206c-.11-2.866.973-5.4 3.261-7.646 2.279-2.24 5.203-3.352 8.761-3.352 3.517 0 6.347 1.069 8.509 3.2q3.224 3.227 3.226 9.21v18.645c0 1.358.064 2.677.183 3.936a25 25 0 0 0 .627 3.729zm16.905-38.108.36 5.9c1-2.112 2.339-3.739 3.998-4.896q2.498-1.711 5.874-1.711c2.296 0 4.232.668 5.794 2.02 1.562 1.347 2.714 3.387 3.446 6.127.938-2.529 2.264-4.528 3.986-5.975 1.722-1.45 3.812-2.172 6.23-2.172 3.335 0 5.923 1.35 7.755 4.05 1.841 2.705 2.759 6.856 2.759 12.464v22.207h-4.246v-22.28c0-4.663-.645-7.946-1.9-9.834-1.261-1.89-3.071-2.842-5.41-2.842-2.462 0-4.384 1.04-5.767 3.152-1.375 2.112-2.223 4.754-2.531 7.945v23.86h-4.224v-22.258c0-4.554-.639-7.812-1.945-9.759-1.299-1.946-3.107-2.912-5.427-2.912-2.218 0-4.013.677-5.358 2.02-1.353 1.349-2.315 3.195-2.899 5.538v27.369h-4.22v-38.014zm61.457 3.021q-3.966 0-6.517 3.613c-1.705 2.415-2.585 5.392-2.656 8.938h17.537v-1.626c0-3.137-.736-5.75-2.21-7.822-1.482-2.075-3.53-3.103-6.154-3.103m.598 35.735c-4.099 0-7.451-1.543-10.055-4.621q-3.895-4.61-3.896-11.793v-6.313c0-4.798 1.303-8.798 3.912-11.979 2.616-3.167 5.758-4.75 9.441-4.75 3.983 0 7.068 1.413 9.27 4.246q3.313 4.257 3.312 11.434v4.171H587.39v3.162c0 3.68.882 6.744 2.635 9.19 1.757 2.45 4.144 3.666 7.136 3.666 2.077 0 3.888-.367 5.396-1.089a11.1 11.1 0 0 0 3.877-3.132l1.728 2.99c-1.148 1.456-2.634 2.633-4.45 3.505-1.811.868-4 1.312-6.551 1.312m46.411-35.734q-3.976 0-6.528 3.613-2.54 3.62-2.652 8.938h17.54v-1.626c0-3.137-.733-5.75-2.216-7.822-1.475-2.075-3.52-3.103-6.144-3.103m.593 35.735c-4.1 0-7.446-1.543-10.045-4.621q-3.91-4.61-3.91-11.793v-6.313c0-4.798 1.309-8.798 3.913-11.979 2.623-3.167 5.766-4.75 9.45-4.75 3.975 0 7.072 1.413 9.27 4.246 2.2 2.837 3.304 6.65 3.304 11.434v4.171h-21.755v3.162q0 5.52 2.647 9.19c1.747 2.45 4.124 3.666 7.125 3.666 2.087 0 3.888-.367 5.392-1.089a11.2 11.2 0 0 0 3.894-3.132l1.717 2.99c-1.15 1.456-2.633 2.633-4.451 3.505-1.81.868-3.997 1.312-6.55 1.312m23.189-38.755.345 6.284c1.014-2.23 2.353-3.962 4.034-5.166 1.667-1.21 3.63-1.824 5.887-1.824 3.396 0 5.998 1.256 7.804 3.78 1.826 2.518 2.73 6.434 2.73 11.749v23.191h-4.249V306.72c0-4.343-.636-7.377-1.9-9.137-1.258-1.76-3.107-2.636-5.513-2.636-2.158 0-3.968.701-5.419 2.126-1.457 1.412-2.543 3.294-3.267 5.666v27.134h-4.219V291.86zm33.27 22.395c0 3.858.73 6.926 2.213 9.208 1.465 2.304 3.695 3.443 6.671 3.443 2.04 0 3.757-.544 5.167-1.657 1.405-1.113 2.514-2.662 3.336-4.627V301.79c-.79-2.025-1.874-3.66-3.244-4.92-1.368-1.24-3.102-1.863-5.186-1.863-2.97 0-5.216 1.294-6.708 3.891-1.502 2.603-2.25 5.995-2.25 10.161zm-4.262-5.195c0-5.386 1.088-9.714 3.274-12.975 2.169-3.245 5.187-4.871 9.03-4.871 2.134 0 4.007.52 5.607 1.564 1.603 1.024 2.928 2.523 3.992 4.43l.412-5.287h3.581v38.048c0 4.871-1.13 8.646-3.4 11.317-2.271 2.66-5.499 4.009-9.666 4.009-1.5 0-3.11-.235-4.832-.691-1.724-.456-3.252-1.054-4.59-1.805l1.168-3.704a14.1 14.1 0 0 0 3.831 1.716 15.2 15.2 0 0 0 4.352.616q4.536-.001 6.71-2.905c1.452-1.961 2.18-4.798 2.18-8.553v-4.597c-1.079 1.71-2.402 3.024-3.97 3.93-1.563.912-3.39 1.368-5.448 1.368-3.818 0-6.814-1.496-8.976-4.486-2.167-2.983-3.255-6.965-3.255-11.93zm40.2 20.916h-4.266V291.86h4.266zm0-48.968h-4.266v-6.005h4.266zm13.774 10.852.346 6.284c1.016-2.23 2.35-3.962 4.027-5.166 1.677-1.21 3.643-1.824 5.89-1.824 3.397 0 6.01 1.256 7.82 3.78 1.821 2.518 2.717 6.434 2.717 11.749v23.191h-4.248V306.72c0-4.343-.635-7.377-1.897-9.137-1.268-1.76-3.103-2.636-5.517-2.636-2.157 0-3.962.701-5.412 2.126-1.455 1.412-2.545 3.294-3.266 5.666v27.134h-4.224V291.86zm42.074 3.021q-3.978 0-6.518 3.613-2.547 3.62-2.66 8.938h17.54v-1.626c0-3.137-.731-5.75-2.21-7.822-1.476-2.075-3.525-3.103-6.152-3.103m.602 35.735c-4.11 0-7.456-1.543-10.048-4.621q-3.903-4.61-3.903-11.793v-6.313c0-4.798 1.302-8.798 3.91-11.979q3.924-4.75 9.439-4.75c3.978 0 7.077 1.413 9.283 4.246 2.197 2.837 3.3 6.65 3.3 11.434v4.171h-21.76v3.162c0 3.68.887 6.744 2.642 9.19 1.754 2.45 4.133 3.666 7.137 3.666 2.08 0 3.88-.367 5.382-1.089a11.16 11.16 0 0 0 3.897-3.132l1.725 2.99c-1.156 1.456-2.64 2.633-4.454 3.505-1.81.868-3.998 1.312-6.55 1.312"
     id="path3" /><path
     fill="#6d6e71"
     d="M487.93 322.997c-.94 1.926-2.664 3.691-5.188 5.289-2.52 1.607-5.722 2.406-9.611 2.406-5.132 0-9.259-1.617-12.394-4.887-3.122-3.243-4.686-7.92-4.686-14.022V296.57c0-5.97 1.473-10.548 4.431-13.743 2.95-3.17 6.903-4.78 11.84-4.78 4.824 0 8.564 1.27 11.212 3.781 2.639 2.519 4.025 6.038 4.146 10.532l-.066.2h-3.94c-.14-3.443-1.14-6.101-3.022-7.979-1.871-1.861-4.655-2.803-8.33-2.803-3.72 0-6.668 1.259-8.823 3.785-2.15 2.518-3.224 6.17-3.224 10.968v15.301q.001 7.462 3.476 11.382c2.316 2.592 5.438 3.892 9.38 3.892 2.876 0 5.19-.51 6.92-1.554 1.738-1.028 2.942-2.285 3.624-3.775V308.45h-10.618v-3.704h14.873zm19.557 3.902c2.336 0 4.416-.661 6.232-2.01 1.82-1.353 3.096-3.063 3.852-5.146v-8.224h-6.756q-4.31 0-6.896 2.442c-1.726 1.617-2.581 3.637-2.581 6.037 0 2.03.534 3.696 1.616 4.981 1.08 1.289 2.59 1.92 4.533 1.92m10.715 3.068a99 99 0 0 1-.48-3.225 22 22 0 0 1-.15-2.562 14.9 14.9 0 0 1-4.483 4.675c-1.836 1.236-3.878 1.848-6.128 1.848-3.147 0-5.567-.975-7.28-2.927-1.702-1.96-2.563-4.6-2.563-7.936 0-3.523 1.237-6.35 3.72-8.448 2.48-2.098 5.85-3.147 10.09-3.147h6.643v-4.672c0-2.686-.686-4.802-2.032-6.331-1.375-1.51-3.264-2.275-5.701-2.275-2.268 0-4.139.722-5.608 2.182-1.463 1.45-2.19 3.224-2.19 5.337l-3.944-.035-.07-.206c-.11-2.866.973-5.4 3.261-7.646 2.279-2.24 5.203-3.352 8.761-3.352 3.517 0 6.347 1.069 8.509 3.2q3.224 3.227 3.226 9.21v18.645c0 1.358.064 2.677.183 3.936a25 25 0 0 0 .627 3.729zm16.905-38.108.36 5.9c1-2.112 2.339-3.739 3.998-4.896q2.498-1.711 5.874-1.711c2.296 0 4.232.668 5.794 2.02 1.562 1.347 2.714 3.387 3.446 6.127.938-2.529 2.264-4.528 3.986-5.975 1.722-1.45 3.812-2.172 6.23-2.172 3.335 0 5.923 1.35 7.755 4.05 1.841 2.705 2.759 6.856 2.759 12.464v22.207h-4.246v-22.28c0-4.663-.645-7.946-1.9-9.834-1.261-1.89-3.071-2.842-5.41-2.842-2.462 0-4.384 1.04-5.767 3.152-1.375 2.112-2.223 4.754-2.531 7.945v23.86h-4.224v-22.258c0-4.554-.639-7.812-1.945-9.759-1.299-1.946-3.107-2.912-5.427-2.912-2.218 0-4.013.677-5.358 2.02-1.353 1.349-2.315 3.195-2.899 5.538v27.369h-4.22v-38.014zm61.457 3.021q-3.966 0-6.517 3.613c-1.705 2.415-2.585 5.392-2.656 8.938h17.537v-1.626c0-3.137-.736-5.75-2.21-7.822-1.482-2.075-3.53-3.103-6.154-3.103m.598 35.735c-4.099 0-7.451-1.543-10.055-4.621q-3.895-4.61-3.896-11.793v-6.313c0-4.798 1.303-8.798 3.912-11.979 2.616-3.167 5.758-4.75 9.441-4.75 3.983 0 7.068 1.413 9.27 4.246q3.313 4.257 3.312 11.434v4.171H587.39v3.162c0 3.68.882 6.744 2.635 9.19 1.757 2.45 4.144 3.666 7.136 3.666 2.077 0 3.888-.367 5.396-1.089a11.1 11.1 0 0 0 3.877-3.132l1.728 2.99c-1.148 1.456-2.634 2.633-4.45 3.505-1.811.868-4 1.312-6.551 1.312m46.411-35.734q-3.976 0-6.528 3.613-2.54 3.62-2.652 8.938h17.54v-1.626c0-3.137-.733-5.75-2.216-7.822-1.475-2.075-3.52-3.103-6.144-3.103m.593 35.735c-4.1 0-7.446-1.543-10.045-4.621q-3.91-4.61-3.91-11.793v-6.313c0-4.798 1.309-8.798 3.913-11.979 2.623-3.167 5.766-4.75 9.45-4.75 3.975 0 7.072 1.413 9.27 4.246 2.2 2.837 3.304 6.65 3.304 11.434v4.171h-21.755v3.162q0 5.52 2.647 9.19c1.747 2.45 4.124 3.666 7.125 3.666 2.087 0 3.888-.367 5.392-1.089a11.2 11.2 0 0 0 3.894-3.132l1.717 2.99c-1.15 1.456-2.633 2.633-4.451 3.505-1.81.868-3.997 1.312-6.55 1.312m23.189-38.755.345 6.284c1.014-2.23 2.353-3.962 4.034-5.166 1.667-1.21 3.63-1.824 5.887-1.824 3.396 0 5.998 1.256 7.804 3.78 1.826 2.518 2.73 6.434 2.73 11.749v23.191h-4.249V306.72c0-4.343-.636-7.377-1.9-9.137-1.258-1.76-3.107-2.636-5.513-2.636-2.158 0-3.968.701-5.419 2.126-1.457 1.412-2.543 3.294-3.267 5.666v27.134h-4.219V291.86zm33.27 22.395c0 3.858.73 6.926 2.213 9.208 1.465 2.304 3.695 3.443 6.671 3.443 2.04 0 3.757-.544 5.167-1.657 1.405-1.113 2.514-2.662 3.336-4.627V301.79c-.79-2.025-1.874-3.66-3.244-4.92-1.368-1.24-3.102-1.863-5.186-1.863-2.97 0-5.216 1.294-6.708 3.891-1.502 2.603-2.25 5.995-2.25 10.161zm-4.262-5.195c0-5.386 1.088-9.714 3.274-12.975 2.169-3.245 5.187-4.871 9.03-4.871 2.134 0 4.007.52 5.607 1.564 1.603 1.024 2.928 2.523 3.992 4.43l.412-5.287h3.581v38.048c0 4.871-1.13 8.646-3.4 11.317-2.271 2.66-5.499 4.009-9.666 4.009-1.5 0-3.11-.235-4.832-.691-1.724-.456-3.252-1.054-4.59-1.805l1.168-3.704a14.1 14.1 0 0 0 3.831 1.716 15.2 15.2 0 0 0 4.352.616q4.536-.001 6.71-2.905c1.452-1.961 2.18-4.798 2.18-8.553v-4.597c-1.079 1.71-2.402 3.024-3.97 3.93-1.563.912-3.39 1.368-5.448 1.368-3.818 0-6.814-1.496-8.976-4.486-2.167-2.983-3.255-6.965-3.255-11.93zm40.2 20.916h-4.266V291.86h4.266zm0-48.968h-4.266v-6.005h4.266zm13.774 10.852.346 6.284c1.016-2.23 2.35-3.962 4.027-5.166 1.677-1.21 3.643-1.824 5.89-1.824 3.397 0 6.01 1.256 7.82 3.78 1.821 2.518 2.717 6.434 2.717 11.749v23.191h-4.248V306.72c0-4.343-.635-7.377-1.897-9.137-1.268-1.76-3.103-2.636-5.517-2.636-2.157 0-3.962.701-5.412 2.126-1.455 1.412-2.545 3.294-3.266 5.666v27.134h-4.224V291.86zm42.074 3.021q-3.978 0-6.518 3.613-2.547 3.62-2.66 8.938h17.54v-1.626c0-3.137-.731-5.75-2.21-7.822-1.476-2.075-3.525-3.103-6.152-3.103m.602 35.735c-4.11 0-7.456-1.543-10.048-4.621q-3.903-4.61-3.903-11.793v-6.313c0-4.798 1.302-8.798 3.91-11.979q3.924-4.75 9.439-4.75c3.978 0 7.077 1.413 9.283 4.246 2.197 2.837 3.3 6.65 3.3 11.434v4.171h-21.76v3.162c0 3.68.887 6.744 2.642 9.19 1.754 2.45 4.133 3.666 7.137 3.666 2.08 0 3.88-.367 5.382-1.089a11.16 11.16 0 0 0 3.897-3.132l1.725 2.99c-1.156 1.456-2.64 2.633-4.454 3.505-1.81.868-3.998 1.312-6.55 1.312"
     id="path4" /><g
     transform="matrix(0.363,0,0,0.363,64.797942,-367.31515)"
     id="g12" /><g
     id="g13"
     transform="matrix(0.80404552,0,0,0.64981037,23.62579,41.426043)"><path
       d="M 0,0 H 512 V 512 H 0 Z"
       fill="#000000"
       fill-opacity="1"
       data-darkreader-inline-fill=""
       id="path1-4"
       style="fill:#ffffff;fill-opacity:0" /><g
       class=""
       transform="translate(1)"
       id="g2"><path
         id="path14"
         style="display:inline;fill:#438e46;fill-opacity:1;stroke:#000000;stroke-width:19.9232;stroke-linecap:round;stroke-dasharray:none;stroke-opacity:1;paint-order:stroke markers fill"
         d="m 17.210148,146.62591 c 31.803968,32.97296 63.211749,76.54928 76.298735,114.99824 5.255885,-8.95153 12.546417,-20.16657 22.432947,-30.17782 -8.94999,-12.88399 -7.03064,-39.31002 -7.88364,-53.108 C 78.750226,154.19635 49.421116,150.8689 17.210148,146.62591 Z m 477.582472,0 c -32.20997,4.24299 -58.5894,6.84023 -87.89737,30.98221 -0.853,13.79798 -1.88332,40.95422 -10.83431,53.83821 7.3547,7.97881 13.03252,20.9206 18.30458,30.96325 13.08798,-38.44896 48.62313,-82.81071 80.4271,-115.78367 z m -88.02654,131.22518 c -0.638,-4.63 -3.2771,-10.19812 -7.96509,-16.45011 -5.424,-7.23199 -13.16495,-15.03858 -21.16494,-23.03857 l -6.36188,-6.36304 6.36188,-6.36303 c 11.28798,-11.28799 13.16001,-39.00676 13.29701,-55.38275 -0.024,-0.045 -0.0572,-0.0993 -0.0802,-0.14427 h 4e-5 l -9.21609,-15.58748 C 370.48682,136.97786 352.82381,112.32365 333.22683,89.926674 319.48884,74.226689 304.80411,59.595581 291.06212,49.169591 277.31914,38.744601 264.50016,32.999008 256.00017,32.999008 c -8.49999,0 -21.31754,5.745593 -35.05952,16.170583 -13.74299,10.42499 -28.42915,25.056098 -42.16714,40.757083 -19.59698,22.396976 -37.25999,47.051186 -48.40998,64.595166 0,0 -4.804,5.13475 -9.18644,15.55078 0.0296,8.26013 1.89924,44.27573 13.18723,55.56372 l 6.3643,6.36303 -6.3643,6.36304 c -7.99999,7.99999 -15.74095,15.80658 -21.16494,23.03857 -4.688,6.25099 -13.736987,14.0104 -12.05246,25.78 1.76603,11.34446 17.74939,52.77055 70.01129,121.36629 15.68199,20.58198 32.33967,38.64898 47.58165,51.27097 15.24299,12.62299 29.26032,19.18228 37.26031,19.18228 7.99999,0 22.01732,-6.55929 37.26031,-19.18228 15.24198,-12.62199 31.89966,-30.68899 47.58165,-51.27097 12.31486,-16.16372 72.19863,-95.82514 65.92395,-130.69618 z"
         sodipodi:nodetypes="cccccccccccccccccccccscccccccccccsccc" /><path
         id="path13"
         style="display:none;fill:#438e46;fill-opacity:1;stroke:#000000;stroke-width:13.8355;stroke-linecap:round;stroke-dasharray:none;stroke-opacity:1;paint-order:stroke markers fill"
         d="m 164.5097,128.21308 c 23.30459,13.19012 36.18159,18.79046 75.99996,44.00022 l -9.01934,15.57245 c -32.38813,-5.93744 -56.56913,-22.03 -75.99995,-44.00021 z m 182.98094,0 9.01933,15.57246 c -37.93359,41.95099 -54.27847,37.15441 -75.99996,44.00021 L 271.49068,172.2133 Z M 17.210148,146.62591 c 31.803968,32.97296 63.211749,73.40759 76.298735,111.85655 1.589999,-2.708 3.38106,-5.33491 5.293058,-7.88391 5.008999,-6.68 11.035899,-12.97123 17.139889,-19.15222 C 106.99184,218.56234 104.19011,202.3592 103.33711,188.56122 74.029142,164.41924 49.421116,150.8689 17.210148,146.62591 Z m 477.582472,0 c -32.20997,4.24299 -56.81899,17.79333 -86.12696,41.93531 -0.853,13.79798 -3.65373,30.00112 -12.60472,42.88511 6.10399,6.18099 12.13089,12.47322 17.13989,19.15222 1.912,2.55 3.70263,5.17591 5.29063,7.88391 13.08798,-38.44896 44.49719,-78.88359 76.30116,-111.85655 z m -113.15581,7.89593 -49.58325,37.18934 -49.22859,12.30827 -2.28823,-6.86498 -17.07431,5.69277 15.99941,39.35643 68.81097,6.79585 14.77878,-10.67619 13.53022,-57.51077 14.27109,-10.70324 m 0,0 h -4e-5 m 0,0 c 0.023,0.045 0.0562,0.0993 0.0802,0.14427 m 0,0 c -0.137,16.37599 -2.00903,44.09476 -13.29701,55.38275 l -6.36188,6.36303 6.36188,6.36304 c 7.99999,7.99999 15.74094,15.80658 21.16494,23.03857 4.68799,6.25199 7.32709,11.82011 7.96509,16.45011 l -25.92602,9.72339 -55.19209,20.69714 c -4.7,-6.84599 -9.90405,-13.25525 -15.28404,-18.63524 l -16.02978,-16.02932 c 0.38077,15.3525 1.16064,30.70257 0.90363,46.06813 l -35.9656,15.66742 -45.30552,-12.20488 c 1.56885,-13.9024 3.51487,-31.92123 3.69956,-49.53067 l -16.02735,16.02932 c -5.381,5.37999 -10.58647,11.78524 -15.28647,18.63224 l -81.11811,-30.41753 c 0.638,-4.629 3.27709,-10.19912 7.96509,-16.45011 5.42399,-7.23199 13.16495,-15.03858 21.16494,-23.03857 l 6.3643,-6.36304 -6.3643,-6.36303 c -11.28799,-11.28799 -13.15758,-39.00676 -13.29458,-55.38275 0.024,-0.045 0.0547,-0.0993 0.0777,-0.14427 l 14.27112,10.70324 13.53021,57.51077 14.77879,10.67619 c 23.1367,0.57437 57.45631,-4.16363 72.27942,-3.79007 l 12.53093,-42.36221 -17.07431,-5.69277 -2.28823,6.86498 -49.23102,-12.30827 -49.58082,-37.18934 c 11.14999,-17.54398 28.813,-42.19819 48.40998,-64.595166 13.73799,-15.700985 28.42415,-30.332093 42.16714,-40.757083 13.74198,-10.42499 26.55953,-16.170583 35.05952,-16.170583 8.49999,0 21.31897,5.745593 35.06195,16.170583 13.74199,10.42599 28.42672,25.057098 42.16471,40.757083 19.59698,22.396976 37.25999,47.051186 48.40998,64.595166 m -205.45032,61.00337 v 15.47627 h 27.83289 l 4.7708,-9.85864 z m 159.62735,0 -32.60368,5.61763 4.7708,9.85864 h 27.83288 z m -230.60387,62.50923 c -0.0552,0.41699 -0.0963,0.83635 -0.11903,1.25637 7.78999,37.42397 34.9863,88.4615 66.06727,129.25646 15.68199,20.58198 32.33967,38.64898 47.58165,51.27097 15.24299,12.62299 29.26032,19.18228 37.26031,19.18228 7.99999,0 22.01732,-6.55929 37.26031,-19.18228 15.24198,-12.62199 31.89966,-30.68899 47.58165,-51.27097 31.08097,-40.79496 58.27585,-91.83249 66.06484,-129.25646 -0.02,-0.41 -0.0626,-0.83037 -0.1166,-1.25637 l -48.02618,72.04325 -102.76402,85.63796 -102.76402,-85.63796 z"
         sodipodi:nodetypes="ccccccccccccccccccccccccccccccccccccccccccccccccccccccccccccccccccccccscccccccccccccccccscccccccc" /><path
         style="fill:#ffffff;fill-opacity:1;stroke:#004620;stroke-width:12.451133;stroke-linecap:round;stroke-dasharray:none;stroke-opacity:1;paint-order:stroke markers fill"
         d="m 139.59563,179.34603 c 35.53806,15.76396 90.5215,28.62405 90.5215,28.62405 l 3.01738,-6.22261 9.05215,2.0742 -6.03477,37.33571 -69.73508,5.39294 -14.75166,-9.95619 z"
         id="path15" /><path
         style="fill:#ffffff;fill-opacity:1;stroke:#004620;stroke-width:12.4511;stroke-linecap:round;stroke-linejoin:round;stroke-dasharray:none;stroke-opacity:1;paint-order:stroke fill markers"
         d="m 255.93252,431.56955 c -41.6467,-21.16449 -68.34619,-53.71051 -99.90892,-82.55342 l -47.6076,-67.2043 c 48.55328,21.637 95.99179,44.85043 150.19863,58.49263 46.56756,-14.48775 93.13512,-29.47021 139.70268,-57.29237 l -42.81113,66.41888 c -43.70089,44.4903 -71.55128,63.17443 -99.57366,82.13858 z"
         id="path16"
         sodipodi:nodetypes="ccccccc" /><path
         style="fill:#ffffff;fill-opacity:1;stroke:#000000;stroke-width:6.91729611;stroke-linecap:round;stroke-linejoin:round;stroke-dasharray:none;stroke-opacity:1;paint-order:fill markers stroke"
         d="m 172.62139,358.58559 c 5.74842,-40.14674 22.33342,-60.31093 42.74409,-79.2628 -10.34878,44.79187 -5.84295,87.22202 10.54031,125.39849"
         id="path17"
         sodipodi:nodetypes="ccc" /><path
         style="fill:#ffffff;fill-opacity:1;stroke:#000000;stroke-width:6.91729611;stroke-linecap:round;stroke-linejoin:round;stroke-dasharray:none;stroke-opacity:1;paint-order:fill markers stroke"
         d="m 299.69142,395.19686 c 12.76273,-33.33881 8.04574,-85.15569 -1.21607,-121.76475 15.11658,24.46998 31.8272,57.1295 40.6028,86.50325"
         id="path18"
         sodipodi:nodetypes="ccc" /><path
         style="fill:#ffffff;fill-opacity:1;stroke:#004620;stroke-width:12.451133;stroke-linecap:round;stroke-dasharray:none;stroke-opacity:1;paint-order:stroke markers fill"
         d="m 270.34891,205.89588 7.37582,-4.56326 3.01738,7.88198 90.85678,-27.79437 -9.38742,53.92938 -12.4048,8.71167 -69.39982,-5.39295 z"
         id="path19" /><path
         style="fill:#000000;fill-opacity:1;stroke:none;stroke-width:0.501967;stroke-linecap:round;stroke-dasharray:none;stroke-opacity:1;paint-order:stroke markers fill"
         d="m 308.23383,217.09659 1.67632,16.17882 27.15646,-1.24454 v -23.64594 z"
         id="path20" /><path
         style="fill:#000000;fill-opacity:1;stroke:none;stroke-width:0.501967;stroke-linecap:round;stroke-dasharray:none;stroke-opacity:1;paint-order:stroke markers fill"
         d="m 210.3365,218.34111 0.33526,14.51945 -26.48591,0.41485 -3.01739,-23.64596 z"
         id="path21" /><path
         style="display:inline;fill:#438e46;fill-opacity:1;stroke:#000703;stroke-width:5.53384;stroke-linecap:round;stroke-linejoin:round;stroke-dasharray:none;stroke-opacity:1;paint-order:stroke fill markers"
         d="M 256.57597,429.49499 255.9412,339.564"
         id="path23"
         transform="translate(-1)"
         sodipodi:nodetypes="cc" /><path
         style="fill:#438e46;fill-opacity:1;stroke:#004620;stroke-width:12.4511;stroke-linecap:square;stroke-linejoin:round;stroke-dasharray:none;stroke-opacity:1;paint-order:stroke fill markers"
         d="m 264.14523,206.43471 20.62972,80.50591 -27.2947,70.68811 -27.2947,-71.47353 18.09067,-79.32777"
         id="path22"
         sodipodi:nodetypes="ccccc" /><path
         style="fill:#438e46;fill-opacity:1;stroke:#000703;stroke-width:5.53384;stroke-linecap:round;stroke-linejoin:round;stroke-dasharray:none;stroke-opacity:1;paint-order:stroke fill markers"
         d="m 353.64646,306.1835 -4.12594,47.91082"
         id="path24"
         sodipodi:nodetypes="cc" /><path
         style="fill:#438e46;fill-opacity:1;stroke:#000703;stroke-width:5.53384;stroke-linecap:round;stroke-linejoin:round;stroke-dasharray:none;stroke-opacity:1;paint-order:stroke fill markers"
         d="m 154.33166,304.21994 3.49118,43.98372"
         id="path25"
         sodipodi:nodetypes="cc" /></g><path
       d="m 150.78584,317.27678 15.97254,22.69853 3.0006,2.36955 c 1.77225,-5.18065 4.30578,-10.44559 7.25483,-15.75076 z m 212.37753,0 -26.22796,9.31732 c 2.94903,5.30517 5.48257,10.57011 7.25481,15.75076 l 3.0006,-2.36955 z m -163.90993,7.40367 c -1.80158,2.64349 -3.51822,5.32337 -5.06099,8.00326 -4.31689,7.49944 -7.25482,15.0535 -8.41948,20.35771 l 19.88608,12.56037 c -4.16122,-13.63118 -5.92842,-26.86394 -6.40561,-40.92134 z m 115.44232,0 c -0.4772,14.0574 -2.24438,27.29016 -6.40561,40.92134 l 19.88608,-12.56037 c -1.16465,-5.30421 -4.10157,-12.85827 -8.41948,-20.35771 -1.54377,-2.67989 -3.25942,-5.35977 -5.06099,-8.00326 z m -19.43821,16.72005 -29.18408,10.36897 v 52.24713 l 7.8786,-6.2208 7.23663,-13.71164 c 8.12831,-15.40213 12.18337,-28.68564 14.06885,-42.68366 z m -76.5659,10e-4 c 1.88447,13.99707 5.94055,27.28058 14.06886,42.68176 l 7.23662,13.71164 7.87862,6.21984 v -52.24617 z"
       style="display:none;fill:#438e46;fill-opacity:1;stroke-width:18.8339;stroke-dasharray:none;paint-order:markers fill stroke"
       id="path1-0" /></g><path
     style="fill:#438e46;fill-opacity:1;stroke:#000703;stroke-width:12;stroke-linecap:square;stroke-linejoin:round;stroke-dasharray:none;stroke-opacity:1;paint-order:stroke fill markers"
     d="M 247.68682,151.36416 298.45787,124.3179"
     id="path26" /><path
     style="fill:#438e46;fill-opacity:1;stroke:#000703;stroke-width:12;stroke-linecap:square;stroke-linejoin:round;stroke-dasharray:none;stroke-opacity:1;paint-order:stroke fill markers"
     d="M 218.26807,155.63463 158.9561,126.21589"
     id="path27" /></svg>
